<svg width="240" height="46" viewBox="0 0 240 46" fill="none" xmlns="http://www.w3.org/2000/svg">
<rect width="240" height="46" rx="8" fill="#2C2640"/>
<path d="M38.1877 15.904C40.4597 15.904 42.2757 16.592 43.6357 17.968C45.0117 19.328 45.6997 21.16 45.6997 23.464C45.6997 25.752 45.0117 27.584 43.6357 28.96C42.2757 30.32 40.4597 31 38.1877 31H33.7477V15.904H38.1877ZM35.6437 29.344H38.1877C39.8677 29.344 41.2037 28.792 42.1957 27.688C43.1877 26.568 43.6837 25.152 43.6837 23.44C43.6837 21.728 43.1797 20.328 42.1717 19.24C41.1797 18.136 39.8517 17.584 38.1877 17.584H35.6437V29.344ZM53.5988 29.728C55.1828 29.728 56.0868 29.032 56.3108 27.64H58.2548C58.0788 28.792 57.5668 29.688 56.7188 30.328C55.8868 30.952 54.8468 31.264 53.5988 31.264C52.0628 31.264 50.8148 30.72 49.8548 29.632C48.8948 28.528 48.4148 27.064 48.4148 25.24C48.4148 23.416 48.8948 21.96 49.8548 20.872C50.8308 19.784 52.1188 19.24 53.7188 19.24C55.3348 19.24 56.5348 19.864 57.3188 21.112C58.1188 22.36 58.3988 23.88 58.1588 25.672H50.3108C50.3108 26.856 50.5988 27.832 51.1748 28.6C51.7508 29.352 52.5588 29.728 53.5988 29.728ZM54.9908 21.04C54.6228 20.848 54.1748 20.752 53.6468 20.752C52.6708 20.752 51.8948 21.088 51.3188 21.76C50.7588 22.416 50.4308 23.24 50.3348 24.232H56.4548C56.4548 22.632 55.9668 21.568 54.9908 21.04ZM63.8144 21.736C64.5664 20.072 65.8544 19.24 67.6784 19.24C68.6704 19.24 69.5024 19.488 70.1744 19.984C70.8464 20.464 71.3344 21.136 71.6384 22C72.3584 20.16 73.6944 19.24 75.6464 19.24C77.0224 19.24 78.0864 19.688 78.8384 20.584C79.5904 21.48 79.9664 22.704 79.9664 24.256V31H78.0944V24.256C78.0944 23.152 77.8304 22.32 77.3024 21.76C76.7904 21.2 76.0464 20.92 75.0704 20.92C74.0944 20.92 73.3344 21.32 72.7904 22.12C72.2624 22.92 71.9984 24.024 71.9984 25.432V31H70.1264V24.256C70.1264 23.152 69.8624 22.32 69.3344 21.76C68.8224 21.2 68.0864 20.92 67.1264 20.92C66.1664 20.92 65.3904 21.312 64.7984 22.096C64.2064 22.88 63.8944 23.968 63.8624 25.36V31H61.9664V19.528H63.5984L63.8144 21.736ZM88.5481 19.24C90.1481 19.24 91.4361 19.76 92.4121 20.8C93.4041 21.84 93.9001 23.328 93.9001 25.264C93.9001 27.184 93.4041 28.664 92.4121 29.704C91.4361 30.744 90.1481 31.264 88.5481 31.264C86.9481 31.264 85.6521 30.744 84.6601 29.704C83.6841 28.664 83.1961 27.184 83.1961 25.264C83.1961 23.328 83.6841 21.84 84.6601 20.8C85.6521 19.76 86.9481 19.24 88.5481 19.24ZM91.9801 25.264C91.9801 23.888 91.6921 22.816 91.1161 22.048C90.5401 21.264 89.6921 20.872 88.5721 20.872C87.4681 20.872 86.6201 21.264 86.0281 22.048C85.4361 22.816 85.1401 23.888 85.1401 25.264C85.1401 26.624 85.4201 27.696 85.9801 28.48C86.5401 29.248 87.3721 29.632 88.4761 29.632C89.5961 29.632 90.4601 29.248 91.0681 28.48C91.6761 27.696 91.9801 26.624 91.9801 25.264Z" fill="#FEFEFF"/>
<path d="M107.368 19.24C108.968 19.24 110.256 19.76 111.232 20.8C112.224 21.84 112.72 23.328 112.72 25.264C112.72 27.184 112.224 28.664 111.232 29.704C110.256 30.744 108.968 31.264 107.368 31.264C105.768 31.264 104.472 30.744 103.48 29.704C102.504 28.664 102.016 27.184 102.016 25.264C102.016 23.328 102.504 21.84 103.48 20.8C104.472 19.76 105.768 19.24 107.368 19.24ZM110.8 25.264C110.8 23.888 110.512 22.816 109.936 22.048C109.36 21.264 108.512 20.872 107.392 20.872C106.288 20.872 105.44 21.264 104.848 22.048C104.256 22.816 103.96 23.888 103.96 25.264C103.96 26.624 104.24 27.696 104.8 28.48C105.36 29.248 106.192 29.632 107.296 29.632C108.416 29.632 109.28 29.248 109.888 28.48C110.496 27.696 110.8 26.624 110.8 25.264ZM118.166 21.736C118.918 20.072 120.206 19.24 122.03 19.24C123.39 19.24 124.446 19.688 125.198 20.584C125.966 21.48 126.35 22.704 126.35 24.256V31H124.478V24.256C124.478 23.152 124.214 22.32 123.686 21.76C123.174 21.2 122.438 20.92 121.478 20.92C120.518 20.92 119.742 21.312 119.15 22.096C118.558 22.88 118.246 23.968 118.214 25.36V31H116.318V19.528H117.95L118.166 21.736ZM138.73 15.904L146.218 28.024V15.904H148.114V31H146.002L138.394 18.712V31H136.474V15.904H138.73ZM156.911 29.728C158.495 29.728 159.399 29.032 159.623 27.64H161.567C161.391 28.792 160.879 29.688 160.031 30.328C159.199 30.952 158.159 31.264 156.911 31.264C155.375 31.264 154.127 30.72 153.167 29.632C152.207 28.528 151.727 27.064 151.727 25.24C151.727 23.416 152.207 21.96 153.167 20.872C154.143 19.784 155.431 19.24 157.031 19.24C158.647 19.24 159.847 19.864 160.631 21.112C161.431 22.36 161.711 23.88 161.471 25.672H153.623C153.623 26.856 153.911 27.832 154.487 28.6C155.063 29.352 155.871 29.728 156.911 29.728ZM158.303 21.04C157.935 20.848 157.487 20.752 156.959 20.752C155.983 20.752 155.207 21.088 154.631 21.76C154.071 22.416 153.743 23.24 153.647 24.232H159.767C159.767 22.632 159.279 21.568 158.303 21.04ZM171.303 30.664C169.927 31.304 168.671 31.44 167.535 31.072C166.719 30.816 166.143 30.28 165.807 29.464C165.631 29.064 165.543 28.584 165.543 28.024V20.968H163.695V19.528H165.543V16.336H167.415V19.528H171.015V20.968H167.415V28C167.415 29.168 167.959 29.752 169.047 29.752C169.639 29.752 170.303 29.608 171.039 29.32L171.303 30.664ZM174.326 14.656H176.222V31H174.326V14.656ZM181.173 19.504H183.069V31H181.173V19.504ZM182.109 16.816C181.725 16.816 181.421 16.712 181.197 16.504C180.989 16.28 180.885 15.992 180.885 15.64C180.885 15.272 180.989 14.984 181.197 14.776C181.421 14.552 181.725 14.44 182.109 14.44C182.493 14.44 182.797 14.552 183.021 14.776C183.261 14.984 183.381 15.272 183.381 15.64C183.381 15.992 183.261 16.28 183.021 16.504C182.797 16.712 182.493 16.816 182.109 16.816ZM193.793 16.264C193.265 16.056 192.849 15.952 192.545 15.952C191.985 15.952 191.545 16.088 191.225 16.36C190.905 16.632 190.745 17.112 190.745 17.8V19.528H193.121V20.824H190.745V31H188.873V20.824H186.977V19.528H188.873V17.776C188.873 16.64 189.185 15.808 189.809 15.28C190.433 14.736 191.153 14.464 191.969 14.464C192.785 14.464 193.505 14.568 194.129 14.776L193.793 16.264ZM194.147 34.336C194.931 34.944 195.755 35.248 196.619 35.248C197.259 35.248 197.811 34.928 198.275 34.288C198.611 33.824 198.915 33.12 199.187 32.176L199.523 31L194.819 19.528H196.931L200.411 28.672L203.123 19.528H205.043L200.747 33.28C200.379 34.448 199.891 35.344 199.283 35.968C198.691 36.592 197.931 36.904 197.003 36.904C196.091 36.904 195.139 36.624 194.147 36.064V34.336Z" fill="#7E7C7F"/>
</svg>
